<svg width="524" height="524" viewBox="0 0 524 524" fill="none" xmlns="http://www.w3.org/2000/svg">
<path fill-rule="evenodd" clip-rule="evenodd" d="M347.899 355.692C334.073 355.692 322.132 352.819 312.076 347.073C302.081 341.267 294.389 333.067 289.002 322.473C283.615 311.819 280.922 299.279 280.922 284.854C280.922 270.669 283.615 258.219 289.002 247.505C294.449 236.731 302.051 228.351 311.807 222.366C321.563 216.32 333.025 213.298 346.193 213.298C354.693 213.298 362.713 214.674 370.255 217.428C377.857 220.121 384.56 224.311 390.366 229.997C396.232 235.683 400.841 242.926 404.193 251.725C407.545 260.463 409.22 270.878 409.22 282.969V292.934H313.159C313.254 300.61 314.719 307.224 317.553 312.776C320.486 318.463 324.586 322.832 329.853 325.885C335.12 328.877 341.285 330.374 348.348 330.374C353.077 330.374 357.356 329.715 361.187 328.398C365.018 327.022 368.34 325.017 371.153 322.383C373.966 319.749 376.091 316.487 377.527 312.597L407.874 316.008C405.958 324.029 402.307 331.032 396.92 337.017C391.593 342.943 384.77 347.552 376.45 350.844C368.13 354.076 358.613 355.692 347.899 355.692ZM317.373 256.034C314.917 260.627 313.532 265.625 313.22 271.028H378.066C378.006 264.803 376.659 259.266 374.026 254.418C371.392 249.51 367.711 245.649 362.983 242.836C358.314 240.023 352.867 238.616 346.642 238.616C339.998 238.616 334.163 240.232 329.135 243.465C324.107 246.637 320.187 250.827 317.373 256.034Z" fill="#ADA0A8"/>
<path d="M388.481 169.125V188.967H302.11V169.125H388.481Z" fill="#ADA0A8"/>
<path fill-rule="evenodd" clip-rule="evenodd" d="M122.119 169.125V352.999H196.548C210.614 352.999 222.286 350.814 231.563 346.445C240.841 342.075 247.784 336.12 252.393 328.578C257.002 320.976 259.306 312.417 259.306 302.9C259.306 293.563 257.391 285.602 253.56 279.018C249.729 272.434 244.791 267.347 238.746 263.755C232.761 260.104 226.506 258.099 219.982 257.74V255.944C225.967 254.508 231.384 252.143 236.232 248.851C241.08 245.559 244.941 241.28 247.814 236.013C250.687 230.686 252.124 224.281 252.124 216.799C252.124 207.701 249.909 199.561 245.48 192.379C241.11 185.196 234.496 179.54 225.638 175.41C216.839 171.22 205.796 169.125 192.508 169.125H122.119ZM191.251 325.166H155.428V271.297H192.149C199.032 271.297 204.958 272.584 209.926 275.158C214.894 277.672 218.725 281.143 221.418 285.572C224.112 289.942 225.458 294.85 225.458 300.297C225.458 307.599 222.765 313.584 217.378 318.253C212.051 322.862 203.342 325.166 191.251 325.166ZM188.378 247.325H155.428V196.598H189.097C198.913 196.598 206.305 198.903 211.273 203.512C216.301 208.12 218.814 213.986 218.814 221.109C218.814 226.496 217.468 231.164 214.774 235.115C212.141 239.005 208.519 242.028 203.911 244.183C199.302 246.278 194.124 247.325 188.378 247.325Z" fill="#ADA0A8"/>
<path fill-rule="evenodd" clip-rule="evenodd" d="M80 0H444C488.183 0 524 35.8172 524 80V444C524 488.183 488.183 524 444 524H80C35.8172 524 0 488.183 0 444V80C0 35.8172 35.8172 0 80 0ZM80 25C49.6243 25 25 49.6243 25 80V444C25 474.376 49.6243 499 80 499H444C474.376 499 499 474.376 499 444V80C499 49.6243 474.376 25 444 25H80Z" fill="#ADA0A8"/>
</svg>
