<svg width="524" height="524" viewBox="0 0 524 524" fill="none" xmlns="http://www.w3.org/2000/svg">
<path d="M267.128 272.198V353.002H234.627V215.096H265.692V238.53H267.308C270.48 230.808 275.538 224.673 282.481 220.124C289.484 215.575 298.133 213.301 308.428 213.301C317.945 213.301 326.235 215.336 333.297 219.406C340.42 223.476 345.927 229.372 349.817 237.093C353.768 244.814 355.713 254.182 355.653 265.195V353.002H323.152V270.223C323.152 261.005 320.758 253.792 315.969 248.585C311.241 243.378 304.687 240.774 296.307 240.774C290.621 240.774 285.563 242.031 281.134 244.545C276.765 246.999 273.323 250.56 270.809 255.229C268.355 259.898 267.128 265.554 267.128 272.198Z" fill="#ADA0A8"/>
<path d="M168.705 215.095V353H201.206V215.095H168.705Z" fill="#ADA0A8"/>
<path d="M171.758 190.405C175.469 193.817 179.898 195.523 185.046 195.523C190.253 195.523 194.682 193.817 198.333 190.405C202.044 186.933 203.9 182.774 203.9 177.925C203.9 173.017 202.044 168.857 198.333 165.446C194.682 161.974 190.253 160.238 185.046 160.238C179.898 160.238 175.469 161.974 171.758 165.446C168.047 168.857 166.191 173.017 166.191 177.925C166.191 182.774 168.047 186.933 171.758 190.405Z" fill="#ADA0A8"/>
<path fill-rule="evenodd" clip-rule="evenodd" d="M131 0H393C465.349 0 524 58.6507 524 131V393C524 465.349 465.349 524 393 524H131C58.6507 524 0 465.349 0 393V131C0 58.6507 58.6507 0 131 0ZM131 25C72.4578 25 25 72.4578 25 131V393C25 451.542 72.4578 499 131 499H393C451.542 499 499 451.542 499 393V131C499 72.4578 451.542 25 393 25H131Z" fill="#ADA0A8"/>
</svg>
