<svg width="524" height="524" viewBox="0 0 524 524" fill="none" xmlns="http://www.w3.org/2000/svg">
<path fill-rule="evenodd" clip-rule="evenodd" d="M524 80C524 35.8172 488.183 0 444 0H80C35.8172 0 0 35.8172 0 80V444C0 488.183 35.8172 524 80 524H444C488.183 524 524 488.183 524 444V80ZM499 169V80C499 49.6243 474.376 25 444 25H80C49.6243 25 25 49.6243 25 80V169L231.226 308.224C249.821 320.778 274.179 320.778 292.774 308.224L499 169ZM25 199.164L217.237 328.944C244.286 347.205 279.714 347.205 306.763 328.944L499 199.164V444C499 474.376 474.376 499 444 499H80C49.6243 499 25 474.376 25 444V199.164Z" fill="#ADA0A8"/>
</svg>
