<svg width="524" height="524" viewBox="0 0 524 524" fill="none" xmlns="http://www.w3.org/2000/svg">
<path fill-rule="evenodd" clip-rule="evenodd" d="M399.265 262.001C399.265 337.81 337.81 399.265 262.001 399.265C186.193 399.265 124.738 337.81 124.738 262.001C124.738 186.193 186.193 124.738 262.001 124.738C337.81 124.738 399.265 186.193 399.265 262.001ZM262.001 374.265C324.003 374.265 374.265 324.003 374.265 262.001C374.265 200 324.003 149.738 262.001 149.738C200 149.738 149.738 200 149.738 262.001C149.738 324.003 200 374.265 262.001 374.265Z" fill="#ADA0A8"/>
<path d="M403.798 141.244C418.932 141.244 431.201 128.975 431.201 113.841C431.201 98.7063 418.932 86.4375 403.798 86.4375C388.663 86.4375 376.395 98.7063 376.395 113.841C376.395 128.975 388.663 141.244 403.798 141.244Z" fill="#ADA0A8"/>
<path fill-rule="evenodd" clip-rule="evenodd" d="M132.12 519.756C97.9616 515.38 69.7883 506.133 46.9721 485.012C44.2093 482.454 41.5462 479.791 38.9885 477.028C17.8669 454.212 8.62014 426.038 4.24444 391.88C-0.000926971 358.738 -0.000509211 316.64 1.14953e-05 263.767V260.233C-0.000509211 207.36 -0.000926971 165.262 4.24444 132.12C8.62014 97.9616 17.8669 69.7883 38.9885 46.9721C41.5462 44.2093 44.2093 41.5462 46.9721 38.9885C69.7883 17.8669 97.9616 8.62014 132.12 4.24444C165.262 -0.000926971 207.36 -0.000509211 260.233 1.14953e-05H263.767C316.64 -0.000509211 358.738 -0.000926971 391.88 4.24444C426.038 8.62014 454.212 17.8669 477.028 38.9885C479.791 41.5462 482.454 44.2093 485.012 46.9721C506.133 69.7883 515.38 97.9616 519.756 132.12C524.001 165.261 524 207.359 524 260.23V263.77C524 316.641 524.001 358.739 519.756 391.88C515.38 426.038 506.133 454.212 485.012 477.028C482.454 479.791 479.791 482.454 477.028 485.012C454.212 506.133 426.038 515.38 391.88 519.756C358.739 524.001 316.641 524 263.77 524H260.23C207.359 524 165.261 524.001 132.12 519.756ZM57.3344 63.9554C25 98.8839 25 153.256 25 262C25 370.744 25 425.116 57.3344 460.045C59.4555 462.336 61.6641 464.545 63.9554 466.666C98.8839 499 153.256 499 262 499C370.744 499 425.116 499 460.045 466.666C462.336 464.545 464.545 462.336 466.666 460.045C499 425.116 499 370.744 499 262C499 153.256 499 98.8839 466.666 63.9554C464.545 61.6641 462.336 59.4555 460.045 57.3344C425.116 25 370.744 25 262 25C153.256 25 98.8839 25 63.9554 57.3344C61.6641 59.4555 59.4555 61.6641 57.3344 63.9554Z" fill="#ADA0A8"/>
</svg>
